<svg id="Layer_1" data-name="Layer 1" xmlns="http://www.w3.org/2000/svg" xmlns:xlink="http://www.w3.org/1999/xlink" viewBox="0 0 328.34 392.26"><defs><style>.cls-1{fill:#4251c4;}.cls-2{fill:url(#linear-gradient);}.cls-3{fill:#e06637;}.cls-4{fill:#ff8150;}.cls-5{fill:#f67940;}.cls-6{fill:url(#linear-gradient-2);}.cls-7{fill:#e47940;}.cls-8{fill:#656bd0;}.cls-9{fill:url(#linear-gradient-3);}.cls-10{fill:url(#linear-gradient-4);}.cls-11{fill:url(#linear-gradient-5);}.cls-12{fill:url(#linear-gradient-6);}.cls-13,.cls-15{fill:none;stroke-miterlimit:10;stroke-width:5px;}.cls-13{stroke:#372f27;}.cls-14{fill:#372f27;}.cls-15{stroke:#000;}.cls-16{opacity:0.25;}</style><linearGradient id="linear-gradient" x1="184.62" y1="332.45" x2="320.41" y2="332.45" gradientUnits="userSpaceOnUse"><stop offset="0" stop-color="#2459eb"/><stop offset="1" stop-color="#5b6da5"/></linearGradient><linearGradient id="linear-gradient-2" x1="196.56" y1="153.68" x2="311.49" y2="153.68" xlink:href="#linear-gradient"/><linearGradient id="linear-gradient-3" x1="304.89" y1="294.3" x2="364.58" y2="294.3" gradientTransform="translate(772.46 368.54) rotate(147.67)" gradientUnits="userSpaceOnUse"><stop offset="0.2" stop-color="#9aa0e4"/><stop offset="0.9" stop-color="#fff"/></linearGradient><linearGradient id="linear-gradient-4" x1="138.38" y1="295.65" x2="208.85" y2="295.65" gradientTransform="translate(89.41 632.52) rotate(-135)" gradientUnits="userSpaceOnUse"><stop offset="0" stop-color="#fff"/><stop offset="1" stop-color="#9aa0e4"/></linearGradient><linearGradient id="linear-gradient-5" x1="118.69" y1="255.89" x2="154.73" y2="255.89" gradientUnits="userSpaceOnUse"><stop offset="0" stop-color="#ff9750"/><stop offset="1" stop-color="#f67940"/></linearGradient><linearGradient id="linear-gradient-6" x1="341.21" y1="254.92" x2="375.63" y2="254.92" xlink:href="#linear-gradient-5"/></defs><ellipse class="cls-1" cx="161.03" cy="167.13" rx="68.08" ry="23.58"/><path class="cls-2" d="M306.69,256.59c-4.27-1.88-6.73-2.09-13.58-3.78-4.35-1.07-10.55-2.76-18-5.37H232.18c-6.42,1.43-11.94,2.76-16.3,3.84-14.79,3.66-18.93,5.2-23.11,8.44-1.07.84-9.43,7.32-8,11.3.59,1.63,3.67,5.2,26.14,2.48q-1.08,55.08-2.14,110.17h-.3v14.14a19.65,19.65,0,0,0,19.65,19.65h50.6a19.65,19.65,0,0,0,19.65-19.65v-10.6h.21V270.92c4.36.29,20.69,1.18,21.77-3C321.18,264.71,312.74,259.25,306.69,256.59Z" transform="translate(-91.83 -103.89)"/><path class="cls-3" d="M141.91,117h39.81a0,0,0,0,1,0,0v38.36a14.67,14.67,0,0,1-14.67,14.67H156.58a14.67,14.67,0,0,1-14.67-14.67V117A0,0,0,0,1,141.91,117Z"/><path d="M210.44,214.53c9.89,2.14,18-30.74,12.28-58-1.67-8-4.51-21.63-14.13-27.19-6.33-3.66-14.34-3.09-19,1.39-6.65,6.35-4.83,19.17-3.56,32.64A80.42,80.42,0,0,0,188.79,178C193.21,193.44,203.27,213,210.44,214.53Z" transform="translate(-91.83 -103.89)"/><path d="M186.75,127c-3.68,9.34,31,17.59,61.5,12.68,8.93-1.44,24.17-3.89,31.54-12.93,4.85-5.94,5.32-13.55,1.08-18.07-6-6.42-20.23-4.92-35.08-4a106,106,0,0,0-16.27,2.38C212.06,111.06,189.41,120.26,186.75,127Z" transform="translate(-91.83 -103.89)"/><path d="M290.51,215.56c9.45,5.7,26.32-28.88,27.78-61.65.43-9.6,1.16-26-7.12-35.49-5.44-6.24-13.7-8.25-19.63-4.72-8.41,5-10,20.13-12.24,35.81a107.59,107.59,0,0,0-1,17.46C278.64,186,283.66,211.43,290.51,215.56Z" transform="translate(-91.83 -103.89)"/><path class="cls-4" d="M300.45,187.5c-1.25,15.43-1.87,23.14-5.9,30.52-.61,1.12-14.65,25.89-40.9,25.58-21.23-.24-34-16.7-36-19.29-5.86-7.8-7.52-17.47-10.84-36.81-3.21-18.77-4.82-28.15-1.82-34.59,9.19-19.75,41.4-21.19,48.63-21.52,11.43-.51,32.82-1.47,43.23,12.21C303.31,152.06,302.36,163.87,300.45,187.5Z" transform="translate(-91.83 -103.89)"/><path class="cls-5" d="M297.39,143.76C287,130.08,265.59,131,254.15,131.55h0V243.76h0c26.26.31,40.3-24.46,40.91-25.58,4-7.38,4.65-15.1,5.9-30.52C302.87,164,303.82,152.22,297.39,143.76Z" transform="translate(-91.83 -103.89)"/><path d="M240.56,116.48c-5.94-.74-11.72,7.83-25.16,25.49-27.14,35.62-34.51,41.26-32.23,43.4,4.41,4.12,34.29-14.65,53.23-32,6.49-5.94,12.43-12.39,12.81-20.77C249.51,125.78,246.15,117.17,240.56,116.48Z" transform="translate(-91.83 -103.89)"/><path d="M190.49,164c2.84,4.71,13.47-1.17,36.26-12.25,46-22.37,55.07-23.89,55.55-27.78.93-7.51-32.39-5.9-58.13,1.26-8.81,2.45-17.75,5.84-25.06,15C193.16,147.66,187.82,159.53,190.49,164Z" transform="translate(-91.83 -103.89)"/><path d="M271.34,120.29c-4.74-2.08-11.27,4.95-26,19-29.73,28.47-37,32.27-35.54,34.87,2.77,5,31.26-6.41,50.45-19,6.57-4.3,12.8-9.23,14.85-17.29C276.76,131.39,275.79,122.24,271.34,120.29Z" transform="translate(-91.83 -103.89)"/><path d="M313.27,191.41c8.77.62,4.29-31.06-9.5-55.62-4-7.2-10.94-19.49-20.65-23.33-6.38-2.52-12.71-.89-15,3.92-3.27,6.83,2.52,18.5,8.08,30.85a102.61,102.61,0,0,0,7.18,13.18C292.15,174.19,306.91,191,313.27,191.41Z" transform="translate(-91.83 -103.89)"/><path class="cls-6" d="M255.64,114.7c-22.1-.63-52,11.08-58,36.62-4.85,20.45,8.31,38.15,10.77,41.36a28.16,28.16,0,0,1-2.35-11c-.08-20.22,23.48-44.12,50.11-43,24.76,1,45.92,23.43,45.72,43a29.08,29.08,0,0,1-2.36,11c2.79-3.55,15.16-20,11.2-39.62C305.6,127.78,276.92,115.31,255.64,114.7Z" transform="translate(-91.83 -103.89)"/><path class="cls-7" d="M362,220.93" transform="translate(-91.83 -103.89)"/><rect class="cls-1" x="92.95" y="162" width="26.31" height="59.53" rx="9.42"/><rect class="cls-1" x="298.72" y="265.89" width="26.31" height="59.53" rx="9.42" transform="translate(-138.02 -45.86) rotate(-9.9)"/><path class="cls-8" d="M235.25,290.12l2.91,6.39" transform="translate(-91.83 -103.89)"/><path class="cls-9" d="M331.53,254.81h2.58a10.09,10.09,0,0,1,10.09,10.09v72.74a0,0,0,0,1,0,0H321.44a0,0,0,0,1,0,0V264.89a10.09,10.09,0,0,1,10.09-10.09Z" transform="translate(363.8 620.62) rotate(-147.67)"/><path class="cls-10" d="M174.41,256.33H177a10.09,10.09,0,0,1,10.09,10.09v72.74a0,0,0,0,1,0,0H164.33a0,0,0,0,1,0,0V266.42a10.09,10.09,0,0,1,10.09-10.09Z" transform="translate(418.65 280.15) rotate(135)"/><path class="cls-11" d="M142.09,249.07a11.29,11.29,0,0,0-3.24.48L132,234.88l-4.17,1.94,6.9,14.84a13.71,13.71,0,0,0-1.33,1.21l-11.11-14.29-3.63,2.82,12.05,15.49a15.08,15.08,0,0,0-1.28,6.09c0,7.69,5.65,13.92,12.63,13.92s12.64-6.23,12.64-13.92S149.07,249.07,142.09,249.07Z" transform="translate(-91.83 -103.89)"/><path class="cls-12" d="M375.63,242.81l-3.58-2.88-10,12.45a12.08,12.08,0,0,0-2.62-1.88l5.71-16-4.33-1.55L355,249.13a11.12,11.12,0,0,0-1.16-.06c-7,0-12.64,6.23-12.64,13.91s5.66,13.92,12.64,13.92,12.64-6.23,12.64-13.92a15,15,0,0,0-1.62-6.81Z" transform="translate(-91.83 -103.89)"/><path class="cls-13" d="M248.27,192.68c1.41,9.58-8.73,19.42-19.41,19.42s-20.83-9.84-19.42-19.42c1.24-8.41,11-13.66,19.13-13.77C237,178.81,247,184.12,248.27,192.68Z" transform="translate(-91.83 -103.89)"/><path class="cls-13" d="M298.56,191.42c1.23,9.89-8.82,19.42-19.41,19.42s-20.64-9.51-19.42-19.42c1.11-9,11.12-14.87,19.91-14.68C288,176.93,297.49,182.68,298.56,191.42Z" transform="translate(-91.83 -103.89)"/><rect class="cls-14" x="152.32" y="77.46" width="19.91" height="4.6"/><path class="cls-15" d="M282.63,172.32" transform="translate(-91.83 -103.89)"/><path d="M219.29,185.46a24.22,24.22,0,0,0-.32,3.86c0,8.54,4.43,15.45,9.89,15.45s9.88-6.91,9.88-15.45a24.22,24.22,0,0,0-.32-3.86Z" transform="translate(-91.83 -103.89)"/><path d="M239.13,174a13.79,13.79,0,0,0-20.55,4.52Z" transform="translate(-91.83 -103.89)"/><path d="M286.9,185.46a24.22,24.22,0,0,1,.32,3.86c0,8.54-4.42,15.45-9.88,15.45s-9.88-6.91-9.88-15.45a24.22,24.22,0,0,1,.32-3.86Z" transform="translate(-91.83 -103.89)"/><path d="M267.07,174a13.79,13.79,0,0,1,20.55,4.52Z" transform="translate(-91.83 -103.89)"/><ellipse class="cls-1" cx="104.32" cy="83.49" rx="12.77" ry="22.95"/><ellipse class="cls-1" cx="219.66" cy="83.65" rx="12.77" ry="22.95"/><ellipse class="cls-16" cx="164.17" cy="366.73" rx="164.17" ry="25.53"/></svg>